HIERARCHY
ROOT SpineBase
{
  OFFSET 0.000000 0.000000 0.000000
  CHANNELS 6 Xposition Yposition Zposition Zrotation Xrotation Yrotation
  JOINT SpineMid
  {
    OFFSET 0.000000 29.121833 0.000000
    CHANNELS 3 Zrotation Xrotation Yrotation
    JOINT SpineShoulder
    {
      OFFSET -0.079015 21.608732 -0.714287
      CHANNELS 3 Zrotation Xrotation Yrotation
      JOINT Neck
      {
        OFFSET -0.069699 7.143457 -0.535522
        CHANNELS 3 Zrotation Xrotation Yrotation
        JOINT Head
        {
          OFFSET 4.418854 12.884723 0.871651
          CHANNELS 3 Zrotation Xrotation Yrotation
          End Site
          {
            OFFSET 0 0 0
          }
        }
      }
      JOINT ShoulderLeft
      {
        OFFSET -13.509415 -4.056166 -7.886560
        CHANNELS 3 Zrotation Xrotation Yrotation
        JOINT ElbowLeft
        {
          OFFSET -5.905382 -22.344574 -0.329891
          CHANNELS 3 Zrotation Xrotation Yrotation
          JOINT WristLeft
          {
            OFFSET 0.295655 -20.125955 -4.087361
            CHANNELS 3 Zrotation Xrotation Yrotation
            JOINT HandLeft
            {
              OFFSET 0.707084 -8.000528 -0.070760
              CHANNELS 3 Zrotation Xrotation Yrotation
              JOINT HandTipLeft
              {
                OFFSET -0.473554 -6.213430 -0.619637
                CHANNELS 3 Zrotation Xrotation Yrotation
                End Site
                {
                  OFFSET 0 0 0
                }
              }
              JOINT ThumbLeft
              {
                OFFSET 3.173879 1.412792 -0.491672
                CHANNELS 3 Zrotation Xrotation Yrotation
                End Site
                {
                  OFFSET 0 0 0
                }
              }
            }
          }
        }
      }
      JOINT ShoulderRight
      {
        OFFSET 15.502333 -6.118935 3.310870
        CHANNELS 3 Zrotation Xrotation Yrotation
        JOINT ElbowRight
        {
          OFFSET 2.960300 -27.077079 3.171450
          CHANNELS 3 Zrotation Xrotation Yrotation
          JOINT WristRight
          {
            OFFSET -0.077488 -20.098171 -4.140841
            CHANNELS 3 Zrotation Xrotation Yrotation
            JOINT HandRight
            {
              OFFSET -0.439861 -3.674582 -0.403639
              CHANNELS 3 Zrotation Xrotation Yrotation
              JOINT HandTipRight
              {
                OFFSET 0.102917 -6.990282 1.365087
                CHANNELS 3 Zrotation Xrotation Yrotation
                End Site
                {
                  OFFSET 0 0 0
                }
              }
              JOINT ThumbRight
              {
                OFFSET -2.709900 -0.407128 -0.221184
                CHANNELS 3 Zrotation Xrotation Yrotation
                End Site
                {
                  OFFSET 0 0 0
                }
              }
            }
          }
        }
      }
    }
  }
  JOINT HipLeft
  {
    OFFSET -6.856454 1.369256 -5.096207
    CHANNELS 3 Zrotation Xrotation Yrotation
    JOINT KneeLeft
    {
      OFFSET -6.402907 -29.954191 9.533571
      CHANNELS 3 Zrotation Xrotation Yrotation
      JOINT AnkleLeft
      {
        OFFSET -4.063454 -33.008513 8.507737
        CHANNELS 3 Zrotation Xrotation Yrotation
        JOINT FootLeft
        {
          OFFSET 2.836258 -5.526557 -8.238061
          CHANNELS 3 Zrotation Xrotation Yrotation
          End Site
          {
            OFFSET 0 0 0
          }
        }
      }
    }
  }
  JOINT HipRight
  {
    OFFSET 6.065781 -0.121478 -1.345019
    CHANNELS 3 Zrotation Xrotation Yrotation
    JOINT KneeRight
    {
      OFFSET -4.925878 -23.868097 7.765189
      CHANNELS 3 Zrotation Xrotation Yrotation
      JOINT AnkleRight
      {
        OFFSET -8.536026 -35.009209 13.701194
        CHANNELS 3 Zrotation Xrotation Yrotation
        JOINT FootRight
        {
          OFFSET -1.074312 -8.085668 -4.285876
          CHANNELS 3 Zrotation Xrotation Yrotation
          End Site
          {
            OFFSET 0 0 0
          }
        }
      }
    }
  }
}
MOTION
Frames: 6
Frame Time: 0.033333
41.854309 140.932920 338.134065 -0.000000 0.000000 -16.187454 0.000000 0.000000 16.187454 -0.000000 0.000000 0.000000 -0.000000 0.000000 0.000000 0.000000 0.000000 0.000000 -0.000000 0.000000 0.000000 -0.000000 0.000000 0.000000 -0.000000 0.000000 0.000000 -0.000000 0.000000 0.000000 0.000000 0.000000 0.000000 0.000000 0.000000 0.000000 -0.000000 0.000000 0.000000 -0.000000 0.000000 0.000000 -0.000000 0.000000 0.000000 -0.000000 0.000000 0.000000 0.000000 0.000000 0.000000 0.000000 0.000000 0.000000 0.000000 0.000000 16.187454 -0.000000 0.000000 0.000000 -0.000000 0.000000 0.000000 0.000000 0.000000 0.000000 0.000000 0.000000 16.187454 -0.000000 0.000000 0.000000 -0.000000 0.000000 0.000000 0.000000 0.000000 0.000000
41.903606 140.922461 338.042769 0.019676 0.033905 -16.125098 -0.009485 -0.038036 16.125089 -0.000000 0.000000 0.000000 -0.000000 0.000000 0.000000 0.000000 0.000000 0.000000 -0.000000 0.000000 0.000000 -0.000000 0.000000 0.000000 2.081257 -0.725341 -0.069233 -1.995956 3.565499 -0.132946 0.000000 0.000000 0.000000 0.000000 0.000000 0.000000 -0.000000 0.000000 0.000000 -0.000000 0.000000 0.000000 -0.023338 0.820601 -0.095422 -0.920979 0.711312 -0.067200 0.000000 0.000000 0.000000 0.000000 0.000000 0.000000 -0.009485 -0.038036 16.125089 -0.000000 0.000000 0.000000 0.805743 2.214338 -0.077592 0.000000 0.000000 0.000000 -0.009485 -0.038036 16.125089 -0.000000 0.000000 0.000000 -0.008288 -0.999038 0.137697 0.000000 0.000000 0.000000
41.953938 140.909377 337.962340 0.038984 0.052588 -16.069447 -0.022904 -0.061324 16.069417 -0.000000 0.000000 0.000000 -0.000000 0.000000 0.000000 0.000000 0.000000 0.000000 -0.000000 0.000000 0.000000 -0.000000 0.000000 0.000000 4.207509 -1.544308 -0.116627 -4.058777 6.479186 -0.173860 0.000000 0.000000 0.000000 0.000000 0.000000 0.000000 -0.000000 0.000000 0.000000 0.580657 -0.693034 -0.113594 -0.625985 2.187205 -0.052565 -1.557177 1.373048 -0.097252 0.000000 0.000000 0.000000 0.000000 0.000000 0.000000 -0.022904 -0.061324 16.069417 -0.000000 0.000000 0.000000 1.378474 3.656630 -0.210354 0.000000 0.000000 0.000000 -0.002954 -0.906746 16.168222 0.216267 0.817538 -0.100180 0.035431 -1.841463 0.228433 0.000000 0.000000 0.000000
42.005304 140.893666 337.892779 0.057924 0.056053 -16.020396 -0.040205 -0.069862 16.020343 -0.000000 0.000000 0.000000 -0.000000 0.000000 0.000000 0.000000 0.000000 0.000000 -0.000000 0.000000 0.000000 -0.000000 0.000000 0.000000 6.133754 -2.394371 -0.137017 -5.947605 8.700190 -0.130956 0.000000 0.000000 0.000000 0.000000 0.000000 0.000000 -0.000000 0.000000 0.000000 0.885147 -0.970889 -0.171432 -0.948043 3.006193 -0.049181 -1.917391 1.988509 -0.088440 0.000000 0.000000 0.000000 0.000000 0.000000 0.000000 -0.040205 -0.069862 16.020343 -0.000000 0.000000 0.000000 1.746225 4.410756 -0.380847 0.000000 0.000000 0.000000 -0.003718 -1.187678 16.155123 0.276004 1.083824 -0.136991 0.130428 -2.521824 0.272070 0.000000 0.000000 0.000000
42.057705 140.875330 337.834085 0.076498 0.044304 -15.977872 -0.061347 -0.063650 15.977808 -0.000000 0.000000 0.000000 -0.000000 0.000000 0.000000 0.000000 0.000000 0.000000 -0.000000 0.000000 0.000000 -0.000000 0.000000 0.000000 7.539582 -3.173480 -0.137400 -7.337225 10.153257 -0.033572 0.000000 0.000000 0.000000 0.000000 0.000000 0.000000 -0.000000 0.000000 0.000000 1.199133 -1.202904 -0.230348 -1.276619 3.656608 -0.028386 -2.003423 2.561357 -0.039479 0.000000 0.000000 0.000000 0.000000 0.000000 0.000000 -0.061347 -0.063650 15.977808 -0.000000 0.000000 0.000000 1.922875 4.519036 -0.582749 0.000000 0.000000 0.000000 -0.003751 -1.361951 16.140467 0.305638 1.263132 -0.165312 0.276039 -3.035999 0.268328 0.000000 0.000000 0.000000
42.111140 140.854369 337.786259 0.094706 0.017344 -15.941833 -0.086300 -0.042689 15.941786 -0.000000 0.000000 0.000000 -0.000000 0.000000 0.000000 0.000000 0.000000 0.000000 -0.000000 0.000000 0.000000 0.409860 0.777354 -0.074493 7.730538 -4.523641 0.042298 -7.917861 10.744975 0.073616 0.000000 0.000000 0.000000 0.000000 0.000000 0.000000 -0.000000 0.000000 0.000000 1.522655 -1.389051 -0.290657 -1.611729 4.145263 0.008551 -1.809202 3.095058 0.050864 0.000000 0.000000 0.000000 0.000000 0.000000 0.000000 -0.086300 -0.042689 15.941786 -0.192586 -0.874939 0.056479 2.109704 4.856838 -0.907249 0.000000 0.000000 0.000000 -0.002813 -1.433565 16.124635 0.306132 1.359340 -0.185405 0.471694 -3.381088 0.216767 0.000000 0.000000 0.000000
